ISO-10303-21;
HEADER;
FILE_DESCRIPTION(('FreeCAD Model'),'2;1');
FILE_NAME('Open CASCADE Shape Model','2026-03-06T05:06:29',(''),(''),
  'Open CASCADE STEP processor 7.8','FreeCAD','Unknown');
FILE_SCHEMA(('AUTOMOTIVE_DESIGN { 1 0 10303 214 1 1 1 1 }'));
ENDSEC;
DATA;
#1 = APPLICATION_PROTOCOL_DEFINITION('international standard',
  'automotive_design',2000,#2);
#2 = APPLICATION_CONTEXT(
  'core data for automotive mechanical design processes');
#3 = SHAPE_DEFINITION_REPRESENTATION(#4,#10);
#4 = PRODUCT_DEFINITION_SHAPE('','',#5);
#5 = PRODUCT_DEFINITION('design','',#6,#9);
#6 = PRODUCT_DEFINITION_FORMATION('','',#7);
#7 = PRODUCT('DS1021_1','DS1021_1','',(#8));
#8 = PRODUCT_CONTEXT('',#2,'mechanical');
#9 = PRODUCT_DEFINITION_CONTEXT('part definition',#2,'design');
#10 = SHAPE_REPRESENTATION('',(#11,#15,#19,#23,#27,#31),#35);
#11 = AXIS2_PLACEMENT_3D('',#12,#13,#14);
#12 = CARTESIAN_POINT('',(0.,0.,0.));
#13 = DIRECTION('',(0.,0.,1.));
#14 = DIRECTION('',(1.,0.,-0.));
#15 = AXIS2_PLACEMENT_3D('',#16,#17,#18);
#16 = CARTESIAN_POINT('',(0.,0.,0.));
#17 = DIRECTION('',(0.,-1.,2.22044604925E-16));
#18 = DIRECTION('',(1.,0.,0.));
#19 = AXIS2_PLACEMENT_3D('',#20,#21,#22);
#20 = CARTESIAN_POINT('',(0.,0.,0.));
#21 = DIRECTION('',(0.,-1.,2.22044604925E-16));
#22 = DIRECTION('',(1.,0.,0.));
#23 = AXIS2_PLACEMENT_3D('',#24,#25,#26);
#24 = CARTESIAN_POINT('',(2.54,0.,0.));
#25 = DIRECTION('',(0.,-1.,2.22044604925E-16));
#26 = DIRECTION('',(1.,0.,0.));
#27 = AXIS2_PLACEMENT_3D('',#28,#29,#30);
#28 = CARTESIAN_POINT('',(0.,0.,0.));
#29 = DIRECTION('',(0.,-1.,2.22044604925E-16));
#30 = DIRECTION('',(1.,0.,0.));
#31 = AXIS2_PLACEMENT_3D('',#32,#33,#34);
#32 = CARTESIAN_POINT('',(2.54,0.,0.));
#33 = DIRECTION('',(0.,-1.,2.22044604925E-16));
#34 = DIRECTION('',(1.,0.,0.));
#35 = ( GEOMETRIC_REPRESENTATION_CONTEXT(3) 
GLOBAL_UNCERTAINTY_ASSIGNED_CONTEXT((#39)) GLOBAL_UNIT_ASSIGNED_CONTEXT(
(#36,#37,#38)) REPRESENTATION_CONTEXT('Context #1',
  '3D Context with UNIT and UNCERTAINTY') );
#36 = ( LENGTH_UNIT() NAMED_UNIT(*) SI_UNIT(.MILLI.,.METRE.) );
#37 = ( NAMED_UNIT(*) PLANE_ANGLE_UNIT() SI_UNIT($,.RADIAN.) );
#38 = ( NAMED_UNIT(*) SI_UNIT($,.STERADIAN.) SOLID_ANGLE_UNIT() );
#39 = UNCERTAINTY_MEASURE_WITH_UNIT(LENGTH_MEASURE(1.E-06),#36,
  'distance_accuracy_value','confusion accuracy');
#40 = PRODUCT_RELATED_PRODUCT_CATEGORY('part',$,(#7));
#41 = SHAPE_DEFINITION_REPRESENTATION(#42,#48);
#42 = PRODUCT_DEFINITION_SHAPE('','',#43);
#43 = PRODUCT_DEFINITION('design','',#44,#47);
#44 = PRODUCT_DEFINITION_FORMATION('','',#45);
#45 = PRODUCT('EXPORT__LinearPattern__S01','EXPORT__LinearPattern__S01',
  '',(#46));
#46 = PRODUCT_CONTEXT('',#2,'mechanical');
#47 = PRODUCT_DEFINITION_CONTEXT('part definition',#2,'design');
#48 = ADVANCED_BREP_SHAPE_REPRESENTATION('',(#11,#49),#661);
#49 = MANIFOLD_SOLID_BREP('',#50);
#50 = CLOSED_SHELL('',(#51,#123,#194,#218,#242,#266,#330,#354,#458,#475,
    #501,#518,#535,#552,#569,#581,#598,#615,#632,#649));
#51 = ADVANCED_FACE('',(#52),#118,.T.);
#52 = FACE_BOUND('',#53,.T.);
#53 = EDGE_LOOP('',(#54,#64,#72,#80,#88,#96,#104,#112));
#54 = ORIENTED_EDGE('',*,*,#55,.F.);
#55 = EDGE_CURVE('',#56,#58,#60,.T.);
#56 = VERTEX_POINT('',#57);
#57 = CARTESIAN_POINT('',(-2.54,0.76,-3.907985046681E-16));
#58 = VERTEX_POINT('',#59);
#59 = CARTESIAN_POINT('',(-2.54,0.75,-2.498001805407E-16));
#60 = LINE('',#61,#62);
#61 = CARTESIAN_POINT('',(-2.54,1.25,-5.551115123126E-16));
#62 = VECTOR('',#63,1.);
#63 = DIRECTION('',(0.,-1.,4.440892098501E-16));
#64 = ORIENTED_EDGE('',*,*,#65,.F.);
#65 = EDGE_CURVE('',#66,#56,#68,.T.);
#66 = VERTEX_POINT('',#67);
#67 = CARTESIAN_POINT('',(-2.54,0.76,-2.5));
#68 = LINE('',#69,#70);
#69 = CARTESIAN_POINT('',(-2.54,0.76,-2.5));
#70 = VECTOR('',#71,1.);
#71 = DIRECTION('',(0.,0.,1.));
#72 = ORIENTED_EDGE('',*,*,#73,.T.);
#73 = EDGE_CURVE('',#66,#74,#76,.T.);
#74 = VERTEX_POINT('',#75);
#75 = CARTESIAN_POINT('',(-2.54,-0.76,-2.5));
#76 = LINE('',#77,#78);
#77 = CARTESIAN_POINT('',(-2.54,1.25,-2.5));
#78 = VECTOR('',#79,1.);
#79 = DIRECTION('',(0.,-1.,4.440892098501E-16));
#80 = ORIENTED_EDGE('',*,*,#81,.T.);
#81 = EDGE_CURVE('',#74,#82,#84,.T.);
#82 = VERTEX_POINT('',#83);
#83 = CARTESIAN_POINT('',(-2.54,-0.76,3.907985046681E-16));
#84 = LINE('',#85,#86);
#85 = CARTESIAN_POINT('',(-2.54,-0.76,-2.5));
#86 = VECTOR('',#87,1.);
#87 = DIRECTION('',(0.,0.,1.));
#88 = ORIENTED_EDGE('',*,*,#89,.F.);
#89 = EDGE_CURVE('',#90,#82,#92,.T.);
#90 = VERTEX_POINT('',#91);
#91 = CARTESIAN_POINT('',(-2.54,-0.75,2.498001805407E-16));
#92 = LINE('',#93,#94);
#93 = CARTESIAN_POINT('',(-2.54,1.25,-5.551115123126E-16));
#94 = VECTOR('',#95,1.);
#95 = DIRECTION('',(0.,-1.,4.440892098501E-16));
#96 = ORIENTED_EDGE('',*,*,#97,.F.);
#97 = EDGE_CURVE('',#98,#90,#100,.T.);
#98 = VERTEX_POINT('',#99);
#99 = CARTESIAN_POINT('',(-2.54,-0.75,-0.75));
#100 = LINE('',#101,#102);
#101 = CARTESIAN_POINT('',(-2.54,-0.75,2.775557561563E-17));
#102 = VECTOR('',#103,1.);
#103 = DIRECTION('',(0.,2.22044604925E-16,1.));
#104 = ORIENTED_EDGE('',*,*,#105,.F.);
#105 = EDGE_CURVE('',#106,#98,#108,.T.);
#106 = VERTEX_POINT('',#107);
#107 = CARTESIAN_POINT('',(-2.54,0.75,-0.75));
#108 = LINE('',#109,#110);
#109 = CARTESIAN_POINT('',(-2.54,0.25,-0.75));
#110 = VECTOR('',#111,1.);
#111 = DIRECTION('',(0.,-1.,2.22044604925E-16));
#112 = ORIENTED_EDGE('',*,*,#113,.F.);
#113 = EDGE_CURVE('',#58,#106,#114,.T.);
#114 = LINE('',#115,#116);
#115 = CARTESIAN_POINT('',(-2.54,0.75,-0.375));
#116 = VECTOR('',#117,1.);
#117 = DIRECTION('',(-0.,-2.22044604925E-16,-1.));
#118 = PLANE('',#119);
#119 = AXIS2_PLACEMENT_3D('',#120,#121,#122);
#120 = CARTESIAN_POINT('',(-2.54,1.25,-5.551115123126E-16));
#121 = DIRECTION('',(-1.,0.,0.));
#122 = DIRECTION('',(0.,-1.,4.440892098501E-16));
#123 = ADVANCED_FACE('',(#124),#189,.F.);
#124 = FACE_BOUND('',#125,.F.);
#125 = EDGE_LOOP('',(#126,#127,#135,#143,#151,#159,#167,#175,#183));
#126 = ORIENTED_EDGE('',*,*,#55,.F.);
#127 = ORIENTED_EDGE('',*,*,#128,.F.);
#128 = EDGE_CURVE('',#129,#56,#131,.T.);
#129 = VERTEX_POINT('',#130);
#130 = CARTESIAN_POINT('',(-2.05,1.25,-4.996003610813E-16));
#131 = LINE('',#132,#133);
#132 = CARTESIAN_POINT('',(-1.85,1.45,-1.831867990632E-16));
#133 = VECTOR('',#134,1.);
#134 = DIRECTION('',(-0.707106781187,-0.707106781187,1.570092458684E-16)
  );
#135 = ORIENTED_EDGE('',*,*,#136,.F.);
#136 = EDGE_CURVE('',#137,#129,#139,.T.);
#137 = VERTEX_POINT('',#138);
#138 = CARTESIAN_POINT('',(-0.49,1.25,-4.996003610813E-16));
#139 = LINE('',#140,#141);
#140 = CARTESIAN_POINT('',(2.54,1.25,-5.551115123126E-16));
#141 = VECTOR('',#142,1.);
#142 = DIRECTION('',(-1.,0.,0.));
#143 = ORIENTED_EDGE('',*,*,#144,.F.);
#144 = EDGE_CURVE('',#145,#137,#147,.T.);
#145 = VERTEX_POINT('',#146);
#146 = CARTESIAN_POINT('',(0.,0.76,0.));
#147 = LINE('',#148,#149);
#148 = CARTESIAN_POINT('',(0.19,0.57,1.798561299893E-16));
#149 = VECTOR('',#150,1.);
#150 = DIRECTION('',(-0.707106781187,0.707106781187,-1.570092458684E-16)
  );
#151 = ORIENTED_EDGE('',*,*,#152,.F.);
#152 = EDGE_CURVE('',#153,#145,#155,.T.);
#153 = VERTEX_POINT('',#154);
#154 = CARTESIAN_POINT('',(0.49,1.25,-4.996003610813E-16));
#155 = LINE('',#156,#157);
#156 = CARTESIAN_POINT('',(5.5E-02,0.815,-4.218847493576E-17));
#157 = VECTOR('',#158,1.);
#158 = DIRECTION('',(-0.707106781187,-0.707106781187,1.570092458684E-16)
  );
#159 = ORIENTED_EDGE('',*,*,#160,.F.);
#160 = EDGE_CURVE('',#161,#153,#163,.T.);
#161 = VERTEX_POINT('',#162);
#162 = CARTESIAN_POINT('',(2.05,1.25,-4.996003610813E-16));
#163 = LINE('',#164,#165);
#164 = CARTESIAN_POINT('',(2.54,1.25,-5.551115123126E-16));
#165 = VECTOR('',#166,1.);
#166 = DIRECTION('',(-1.,0.,0.));
#167 = ORIENTED_EDGE('',*,*,#168,.F.);
#168 = EDGE_CURVE('',#169,#161,#171,.T.);
#169 = VERTEX_POINT('',#170);
#170 = CARTESIAN_POINT('',(2.54,0.76,-3.907985046681E-16));
#171 = LINE('',#172,#173);
#172 = CARTESIAN_POINT('',(2.095,1.205,3.885780586188E-17));
#173 = VECTOR('',#174,1.);
#174 = DIRECTION('',(-0.707106781187,0.707106781187,-1.570092458684E-16)
  );
#175 = ORIENTED_EDGE('',*,*,#176,.F.);
#176 = EDGE_CURVE('',#177,#169,#179,.T.);
#177 = VERTEX_POINT('',#178);
#178 = CARTESIAN_POINT('',(2.54,0.75,-1.665334536938E-16));
#179 = LINE('',#180,#181);
#180 = CARTESIAN_POINT('',(2.54,-1.25,5.551115123126E-16));
#181 = VECTOR('',#182,1.);
#182 = DIRECTION('',(0.,1.,-4.440892098501E-16));
#183 = ORIENTED_EDGE('',*,*,#184,.T.);
#184 = EDGE_CURVE('',#177,#58,#185,.T.);
#185 = LINE('',#186,#187);
#186 = CARTESIAN_POINT('',(2.54,0.75,-1.665334536938E-16));
#187 = VECTOR('',#188,1.);
#188 = DIRECTION('',(-1.,2.22044604925E-16,-4.930380657631E-32));
#189 = PLANE('',#190);
#190 = AXIS2_PLACEMENT_3D('',#191,#192,#193);
#191 = CARTESIAN_POINT('',(-5.858696699869E-17,0.,0.));
#192 = DIRECTION('',(0.,-2.22044604925E-16,-1.));
#193 = DIRECTION('',(0.,1.,-2.22044604925E-16));
#194 = ADVANCED_FACE('',(#195),#213,.F.);
#195 = FACE_BOUND('',#196,.F.);
#196 = EDGE_LOOP('',(#197,#205,#211,#212));
#197 = ORIENTED_EDGE('',*,*,#198,.F.);
#198 = EDGE_CURVE('',#199,#177,#201,.T.);
#199 = VERTEX_POINT('',#200);
#200 = CARTESIAN_POINT('',(2.54,0.75,-0.75));
#201 = LINE('',#202,#203);
#202 = CARTESIAN_POINT('',(2.54,0.75,-0.75));
#203 = VECTOR('',#204,1.);
#204 = DIRECTION('',(0.,2.22044604925E-16,1.));
#205 = ORIENTED_EDGE('',*,*,#206,.T.);
#206 = EDGE_CURVE('',#199,#106,#207,.T.);
#207 = LINE('',#208,#209);
#208 = CARTESIAN_POINT('',(2.54,0.75,-0.75));
#209 = VECTOR('',#210,1.);
#210 = DIRECTION('',(-1.,2.22044604925E-16,-4.930380657631E-32));
#211 = ORIENTED_EDGE('',*,*,#113,.F.);
#212 = ORIENTED_EDGE('',*,*,#184,.F.);
#213 = PLANE('',#214);
#214 = AXIS2_PLACEMENT_3D('',#215,#216,#217);
#215 = CARTESIAN_POINT('',(2.54,0.75,-0.75));
#216 = DIRECTION('',(2.22044604925E-16,1.,-2.22044604925E-16));
#217 = DIRECTION('',(0.,2.22044604925E-16,1.));
#218 = ADVANCED_FACE('',(#219),#237,.F.);
#219 = FACE_BOUND('',#220,.F.);
#220 = EDGE_LOOP('',(#221,#229,#235,#236));
#221 = ORIENTED_EDGE('',*,*,#222,.F.);
#222 = EDGE_CURVE('',#223,#199,#225,.T.);
#223 = VERTEX_POINT('',#224);
#224 = CARTESIAN_POINT('',(2.54,-0.75,-0.75));
#225 = LINE('',#226,#227);
#226 = CARTESIAN_POINT('',(2.54,-0.75,-0.75));
#227 = VECTOR('',#228,1.);
#228 = DIRECTION('',(2.22044604925E-16,1.,-2.22044604925E-16));
#229 = ORIENTED_EDGE('',*,*,#230,.T.);
#230 = EDGE_CURVE('',#223,#98,#231,.T.);
#231 = LINE('',#232,#233);
#232 = CARTESIAN_POINT('',(2.54,-0.75,-0.75));
#233 = VECTOR('',#234,1.);
#234 = DIRECTION('',(-1.,2.22044604925E-16,-4.930380657631E-32));
#235 = ORIENTED_EDGE('',*,*,#105,.F.);
#236 = ORIENTED_EDGE('',*,*,#206,.F.);
#237 = PLANE('',#238);
#238 = AXIS2_PLACEMENT_3D('',#239,#240,#241);
#239 = CARTESIAN_POINT('',(2.54,-0.75,-0.75));
#240 = DIRECTION('',(0.,-2.22044604925E-16,-1.));
#241 = DIRECTION('',(2.22044604925E-16,1.,-2.22044604925E-16));
#242 = ADVANCED_FACE('',(#243),#261,.F.);
#243 = FACE_BOUND('',#244,.F.);
#244 = EDGE_LOOP('',(#245,#253,#259,#260));
#245 = ORIENTED_EDGE('',*,*,#246,.F.);
#246 = EDGE_CURVE('',#247,#223,#249,.T.);
#247 = VERTEX_POINT('',#248);
#248 = CARTESIAN_POINT('',(2.54,-0.75,1.665334536938E-16));
#249 = LINE('',#250,#251);
#250 = CARTESIAN_POINT('',(2.54,-0.75,1.665334536938E-16));
#251 = VECTOR('',#252,1.);
#252 = DIRECTION('',(0.,-2.22044604925E-16,-1.));
#253 = ORIENTED_EDGE('',*,*,#254,.T.);
#254 = EDGE_CURVE('',#247,#90,#255,.T.);
#255 = LINE('',#256,#257);
#256 = CARTESIAN_POINT('',(2.54,-0.75,1.665334536938E-16));
#257 = VECTOR('',#258,1.);
#258 = DIRECTION('',(-1.,2.22044604925E-16,-4.930380657631E-32));
#259 = ORIENTED_EDGE('',*,*,#97,.F.);
#260 = ORIENTED_EDGE('',*,*,#230,.F.);
#261 = PLANE('',#262);
#262 = AXIS2_PLACEMENT_3D('',#263,#264,#265);
#263 = CARTESIAN_POINT('',(2.54,-0.75,1.665334536938E-16));
#264 = DIRECTION('',(-2.22044604925E-16,-1.,2.22044604925E-16));
#265 = DIRECTION('',(0.,-2.22044604925E-16,-1.));
#266 = ADVANCED_FACE('',(#267),#325,.F.);
#267 = FACE_BOUND('',#268,.F.);
#268 = EDGE_LOOP('',(#269,#270,#271,#279,#287,#295,#303,#311,#319));
#269 = ORIENTED_EDGE('',*,*,#89,.F.);
#270 = ORIENTED_EDGE('',*,*,#254,.F.);
#271 = ORIENTED_EDGE('',*,*,#272,.F.);
#272 = EDGE_CURVE('',#273,#247,#275,.T.);
#273 = VERTEX_POINT('',#274);
#274 = CARTESIAN_POINT('',(2.54,-0.76,3.907985046681E-16));
#275 = LINE('',#276,#277);
#276 = CARTESIAN_POINT('',(2.54,-1.25,5.551115123126E-16));
#277 = VECTOR('',#278,1.);
#278 = DIRECTION('',(0.,1.,-4.440892098501E-16));
#279 = ORIENTED_EDGE('',*,*,#280,.T.);
#280 = EDGE_CURVE('',#273,#281,#283,.T.);
#281 = VERTEX_POINT('',#282);
#282 = CARTESIAN_POINT('',(2.05,-1.25,4.996003610813E-16));
#283 = LINE('',#284,#285);
#284 = CARTESIAN_POINT('',(2.095,-1.205,4.052314039882E-16));
#285 = VECTOR('',#286,1.);
#286 = DIRECTION('',(-0.707106781187,-0.707106781187,1.570092458684E-16)
  );
#287 = ORIENTED_EDGE('',*,*,#288,.F.);
#288 = EDGE_CURVE('',#289,#281,#291,.T.);
#289 = VERTEX_POINT('',#290);
#290 = CARTESIAN_POINT('',(0.49,-1.25,4.996003610813E-16));
#291 = LINE('',#292,#293);
#292 = CARTESIAN_POINT('',(-2.54,-1.25,5.551115123126E-16));
#293 = VECTOR('',#294,1.);
#294 = DIRECTION('',(1.,0.,0.));
#295 = ORIENTED_EDGE('',*,*,#296,.T.);
#296 = EDGE_CURVE('',#289,#297,#299,.T.);
#297 = VERTEX_POINT('',#298);
#298 = CARTESIAN_POINT('',(0.,-0.76,0.));
#299 = LINE('',#300,#301);
#300 = CARTESIAN_POINT('',(5.5E-02,-0.815,2.642330798608E-16));
#301 = VECTOR('',#302,1.);
#302 = DIRECTION('',(-0.707106781187,0.707106781187,-1.570092458684E-16)
  );
#303 = ORIENTED_EDGE('',*,*,#304,.T.);
#304 = EDGE_CURVE('',#297,#305,#307,.T.);
#305 = VERTEX_POINT('',#306);
#306 = CARTESIAN_POINT('',(-0.49,-1.25,4.996003610813E-16));
#307 = LINE('',#308,#309);
#308 = CARTESIAN_POINT('',(0.19,-0.57,2.642330798608E-16));
#309 = VECTOR('',#310,1.);
#310 = DIRECTION('',(-0.707106781187,-0.707106781187,1.570092458684E-16)
  );
#311 = ORIENTED_EDGE('',*,*,#312,.F.);
#312 = EDGE_CURVE('',#313,#305,#315,.T.);
#313 = VERTEX_POINT('',#314);
#314 = CARTESIAN_POINT('',(-2.05,-1.25,4.996003610813E-16));
#315 = LINE('',#316,#317);
#316 = CARTESIAN_POINT('',(-2.54,-1.25,5.551115123126E-16));
#317 = VECTOR('',#318,1.);
#318 = DIRECTION('',(1.,0.,0.));
#319 = ORIENTED_EDGE('',*,*,#320,.T.);
#320 = EDGE_CURVE('',#313,#82,#321,.T.);
#321 = LINE('',#322,#323);
#322 = CARTESIAN_POINT('',(-1.85,-1.45,4.052314039882E-16));
#323 = VECTOR('',#324,1.);
#324 = DIRECTION('',(-0.707106781187,0.707106781187,-1.570092458684E-16)
  );
#325 = PLANE('',#326);
#326 = AXIS2_PLACEMENT_3D('',#327,#328,#329);
#327 = CARTESIAN_POINT('',(-5.858696699869E-17,0.,0.));
#328 = DIRECTION('',(0.,-2.22044604925E-16,-1.));
#329 = DIRECTION('',(0.,1.,-2.22044604925E-16));
#330 = ADVANCED_FACE('',(#331),#349,.T.);
#331 = FACE_BOUND('',#332,.T.);
#332 = EDGE_LOOP('',(#333,#341,#347,#348));
#333 = ORIENTED_EDGE('',*,*,#334,.F.);
#334 = EDGE_CURVE('',#335,#74,#337,.T.);
#335 = VERTEX_POINT('',#336);
#336 = CARTESIAN_POINT('',(-2.05,-1.25,-2.5));
#337 = LINE('',#338,#339);
#338 = CARTESIAN_POINT('',(-2.05,-1.25,-2.5));
#339 = VECTOR('',#340,1.);
#340 = DIRECTION('',(-0.707106781187,0.707106781187,-0.));
#341 = ORIENTED_EDGE('',*,*,#342,.T.);
#342 = EDGE_CURVE('',#335,#313,#343,.T.);
#343 = LINE('',#344,#345);
#344 = CARTESIAN_POINT('',(-2.05,-1.25,-2.5));
#345 = VECTOR('',#346,1.);
#346 = DIRECTION('',(0.,0.,1.));
#347 = ORIENTED_EDGE('',*,*,#320,.T.);
#348 = ORIENTED_EDGE('',*,*,#81,.F.);
#349 = PLANE('',#350);
#350 = AXIS2_PLACEMENT_3D('',#351,#352,#353);
#351 = CARTESIAN_POINT('',(-2.05,-1.25,-2.5));
#352 = DIRECTION('',(-0.707106781187,-0.707106781187,0.));
#353 = DIRECTION('',(-0.707106781187,0.707106781187,0.));
#354 = ADVANCED_FACE('',(#355),#453,.T.);
#355 = FACE_BOUND('',#356,.T.);
#356 = EDGE_LOOP('',(#357,#358,#366,#374,#382,#390,#398,#406,#414,#422,
    #430,#438,#446,#452));
#357 = ORIENTED_EDGE('',*,*,#73,.F.);
#358 = ORIENTED_EDGE('',*,*,#359,.F.);
#359 = EDGE_CURVE('',#360,#66,#362,.T.);
#360 = VERTEX_POINT('',#361);
#361 = CARTESIAN_POINT('',(-2.05,1.25,-2.5));
#362 = LINE('',#363,#364);
#363 = CARTESIAN_POINT('',(-2.05,1.25,-2.5));
#364 = VECTOR('',#365,1.);
#365 = DIRECTION('',(-0.707106781187,-0.707106781187,0.));
#366 = ORIENTED_EDGE('',*,*,#367,.F.);
#367 = EDGE_CURVE('',#368,#360,#370,.T.);
#368 = VERTEX_POINT('',#369);
#369 = CARTESIAN_POINT('',(-0.49,1.25,-2.5));
#370 = LINE('',#371,#372);
#371 = CARTESIAN_POINT('',(2.54,1.25,-2.5));
#372 = VECTOR('',#373,1.);
#373 = DIRECTION('',(-1.,0.,0.));
#374 = ORIENTED_EDGE('',*,*,#375,.F.);
#375 = EDGE_CURVE('',#376,#368,#378,.T.);
#376 = VERTEX_POINT('',#377);
#377 = CARTESIAN_POINT('',(0.,0.76,-2.5));
#378 = LINE('',#379,#380);
#379 = CARTESIAN_POINT('',(0.,0.76,-2.5));
#380 = VECTOR('',#381,1.);
#381 = DIRECTION('',(-0.707106781187,0.707106781187,-0.));
#382 = ORIENTED_EDGE('',*,*,#383,.F.);
#383 = EDGE_CURVE('',#384,#376,#386,.T.);
#384 = VERTEX_POINT('',#385);
#385 = CARTESIAN_POINT('',(0.49,1.25,-2.5));
#386 = LINE('',#387,#388);
#387 = CARTESIAN_POINT('',(0.49,1.25,-2.5));
#388 = VECTOR('',#389,1.);
#389 = DIRECTION('',(-0.707106781187,-0.707106781187,0.));
#390 = ORIENTED_EDGE('',*,*,#391,.F.);
#391 = EDGE_CURVE('',#392,#384,#394,.T.);
#392 = VERTEX_POINT('',#393);
#393 = CARTESIAN_POINT('',(2.05,1.25,-2.5));
#394 = LINE('',#395,#396);
#395 = CARTESIAN_POINT('',(2.54,1.25,-2.5));
#396 = VECTOR('',#397,1.);
#397 = DIRECTION('',(-1.,0.,0.));
#398 = ORIENTED_EDGE('',*,*,#399,.F.);
#399 = EDGE_CURVE('',#400,#392,#402,.T.);
#400 = VERTEX_POINT('',#401);
#401 = CARTESIAN_POINT('',(2.54,0.76,-2.5));
#402 = LINE('',#403,#404);
#403 = CARTESIAN_POINT('',(2.54,0.76,-2.5));
#404 = VECTOR('',#405,1.);
#405 = DIRECTION('',(-0.707106781187,0.707106781187,-0.));
#406 = ORIENTED_EDGE('',*,*,#407,.F.);
#407 = EDGE_CURVE('',#408,#400,#410,.T.);
#408 = VERTEX_POINT('',#409);
#409 = CARTESIAN_POINT('',(2.54,-0.76,-2.5));
#410 = LINE('',#411,#412);
#411 = CARTESIAN_POINT('',(2.54,-1.25,-2.5));
#412 = VECTOR('',#413,1.);
#413 = DIRECTION('',(0.,1.,-4.440892098501E-16));
#414 = ORIENTED_EDGE('',*,*,#415,.T.);
#415 = EDGE_CURVE('',#408,#416,#418,.T.);
#416 = VERTEX_POINT('',#417);
#417 = CARTESIAN_POINT('',(2.05,-1.25,-2.5));
#418 = LINE('',#419,#420);
#419 = CARTESIAN_POINT('',(2.54,-0.76,-2.5));
#420 = VECTOR('',#421,1.);
#421 = DIRECTION('',(-0.707106781187,-0.707106781187,0.));
#422 = ORIENTED_EDGE('',*,*,#423,.F.);
#423 = EDGE_CURVE('',#424,#416,#426,.T.);
#424 = VERTEX_POINT('',#425);
#425 = CARTESIAN_POINT('',(0.49,-1.25,-2.5));
#426 = LINE('',#427,#428);
#427 = CARTESIAN_POINT('',(-2.54,-1.25,-2.5));
#428 = VECTOR('',#429,1.);
#429 = DIRECTION('',(1.,0.,0.));
#430 = ORIENTED_EDGE('',*,*,#431,.T.);
#431 = EDGE_CURVE('',#424,#432,#434,.T.);
#432 = VERTEX_POINT('',#433);
#433 = CARTESIAN_POINT('',(0.,-0.76,-2.5));
#434 = LINE('',#435,#436);
#435 = CARTESIAN_POINT('',(0.49,-1.25,-2.5));
#436 = VECTOR('',#437,1.);
#437 = DIRECTION('',(-0.707106781187,0.707106781187,-0.));
#438 = ORIENTED_EDGE('',*,*,#439,.T.);
#439 = EDGE_CURVE('',#432,#440,#442,.T.);
#440 = VERTEX_POINT('',#441);
#441 = CARTESIAN_POINT('',(-0.49,-1.25,-2.5));
#442 = LINE('',#443,#444);
#443 = CARTESIAN_POINT('',(0.,-0.76,-2.5));
#444 = VECTOR('',#445,1.);
#445 = DIRECTION('',(-0.707106781187,-0.707106781187,0.));
#446 = ORIENTED_EDGE('',*,*,#447,.F.);
#447 = EDGE_CURVE('',#335,#440,#448,.T.);
#448 = LINE('',#449,#450);
#449 = CARTESIAN_POINT('',(-2.54,-1.25,-2.5));
#450 = VECTOR('',#451,1.);
#451 = DIRECTION('',(1.,0.,0.));
#452 = ORIENTED_EDGE('',*,*,#334,.T.);
#453 = PLANE('',#454);
#454 = AXIS2_PLACEMENT_3D('',#455,#456,#457);
#455 = CARTESIAN_POINT('',(-5.858696699869E-17,-1.110223024625E-15,-2.5)
  );
#456 = DIRECTION('',(0.,-2.22044604925E-16,-1.));
#457 = DIRECTION('',(0.,1.,-2.22044604925E-16));
#458 = ADVANCED_FACE('',(#459),#470,.F.);
#459 = FACE_BOUND('',#460,.F.);
#460 = EDGE_LOOP('',(#461,#462,#468,#469));
#461 = ORIENTED_EDGE('',*,*,#359,.F.);
#462 = ORIENTED_EDGE('',*,*,#463,.T.);
#463 = EDGE_CURVE('',#360,#129,#464,.T.);
#464 = LINE('',#465,#466);
#465 = CARTESIAN_POINT('',(-2.05,1.25,-2.5));
#466 = VECTOR('',#467,1.);
#467 = DIRECTION('',(0.,0.,1.));
#468 = ORIENTED_EDGE('',*,*,#128,.T.);
#469 = ORIENTED_EDGE('',*,*,#65,.F.);
#470 = PLANE('',#471);
#471 = AXIS2_PLACEMENT_3D('',#472,#473,#474);
#472 = CARTESIAN_POINT('',(-2.05,1.25,-2.5));
#473 = DIRECTION('',(0.707106781187,-0.707106781187,0.));
#474 = DIRECTION('',(-0.707106781187,-0.707106781187,0.));
#475 = ADVANCED_FACE('',(#476),#496,.T.);
#476 = FACE_BOUND('',#477,.T.);
#477 = EDGE_LOOP('',(#478,#479,#485,#486,#492,#493,#494,#495));
#478 = ORIENTED_EDGE('',*,*,#272,.F.);
#479 = ORIENTED_EDGE('',*,*,#480,.F.);
#480 = EDGE_CURVE('',#408,#273,#481,.T.);
#481 = LINE('',#482,#483);
#482 = CARTESIAN_POINT('',(2.54,-0.76,-2.5));
#483 = VECTOR('',#484,1.);
#484 = DIRECTION('',(0.,0.,1.));
#485 = ORIENTED_EDGE('',*,*,#407,.T.);
#486 = ORIENTED_EDGE('',*,*,#487,.T.);
#487 = EDGE_CURVE('',#400,#169,#488,.T.);
#488 = LINE('',#489,#490);
#489 = CARTESIAN_POINT('',(2.54,0.76,-2.5));
#490 = VECTOR('',#491,1.);
#491 = DIRECTION('',(0.,0.,1.));
#492 = ORIENTED_EDGE('',*,*,#176,.F.);
#493 = ORIENTED_EDGE('',*,*,#198,.F.);
#494 = ORIENTED_EDGE('',*,*,#222,.F.);
#495 = ORIENTED_EDGE('',*,*,#246,.F.);
#496 = PLANE('',#497);
#497 = AXIS2_PLACEMENT_3D('',#498,#499,#500);
#498 = CARTESIAN_POINT('',(2.54,-1.25,5.551115123126E-16));
#499 = DIRECTION('',(1.,0.,0.));
#500 = DIRECTION('',(0.,1.,-4.440892098501E-16));
#501 = ADVANCED_FACE('',(#502),#513,.F.);
#502 = FACE_BOUND('',#503,.F.);
#503 = EDGE_LOOP('',(#504,#505,#506,#507));
#504 = ORIENTED_EDGE('',*,*,#399,.F.);
#505 = ORIENTED_EDGE('',*,*,#487,.T.);
#506 = ORIENTED_EDGE('',*,*,#168,.T.);
#507 = ORIENTED_EDGE('',*,*,#508,.F.);
#508 = EDGE_CURVE('',#392,#161,#509,.T.);
#509 = LINE('',#510,#511);
#510 = CARTESIAN_POINT('',(2.05,1.25,-2.5));
#511 = VECTOR('',#512,1.);
#512 = DIRECTION('',(0.,0.,1.));
#513 = PLANE('',#514);
#514 = AXIS2_PLACEMENT_3D('',#515,#516,#517);
#515 = CARTESIAN_POINT('',(2.54,0.76,-2.5));
#516 = DIRECTION('',(-0.707106781187,-0.707106781187,0.));
#517 = DIRECTION('',(-0.707106781187,0.707106781187,0.));
#518 = ADVANCED_FACE('',(#519),#530,.T.);
#519 = FACE_BOUND('',#520,.T.);
#520 = EDGE_LOOP('',(#521,#522,#523,#524));
#521 = ORIENTED_EDGE('',*,*,#160,.F.);
#522 = ORIENTED_EDGE('',*,*,#508,.F.);
#523 = ORIENTED_EDGE('',*,*,#391,.T.);
#524 = ORIENTED_EDGE('',*,*,#525,.T.);
#525 = EDGE_CURVE('',#384,#153,#526,.T.);
#526 = LINE('',#527,#528);
#527 = CARTESIAN_POINT('',(0.49,1.25,-2.5));
#528 = VECTOR('',#529,1.);
#529 = DIRECTION('',(0.,0.,1.));
#530 = PLANE('',#531);
#531 = AXIS2_PLACEMENT_3D('',#532,#533,#534);
#532 = CARTESIAN_POINT('',(2.54,1.25,-5.551115123126E-16));
#533 = DIRECTION('',(0.,1.,-4.440892098501E-16));
#534 = DIRECTION('',(-1.,0.,0.));
#535 = ADVANCED_FACE('',(#536),#547,.F.);
#536 = FACE_BOUND('',#537,.F.);
#537 = EDGE_LOOP('',(#538,#539,#540,#541));
#538 = ORIENTED_EDGE('',*,*,#383,.F.);
#539 = ORIENTED_EDGE('',*,*,#525,.T.);
#540 = ORIENTED_EDGE('',*,*,#152,.T.);
#541 = ORIENTED_EDGE('',*,*,#542,.F.);
#542 = EDGE_CURVE('',#376,#145,#543,.T.);
#543 = LINE('',#544,#545);
#544 = CARTESIAN_POINT('',(0.,0.76,-2.5));
#545 = VECTOR('',#546,1.);
#546 = DIRECTION('',(0.,0.,1.));
#547 = PLANE('',#548);
#548 = AXIS2_PLACEMENT_3D('',#549,#550,#551);
#549 = CARTESIAN_POINT('',(0.49,1.25,-2.5));
#550 = DIRECTION('',(0.707106781187,-0.707106781187,0.));
#551 = DIRECTION('',(-0.707106781187,-0.707106781187,0.));
#552 = ADVANCED_FACE('',(#553),#564,.F.);
#553 = FACE_BOUND('',#554,.F.);
#554 = EDGE_LOOP('',(#555,#556,#557,#558));
#555 = ORIENTED_EDGE('',*,*,#375,.F.);
#556 = ORIENTED_EDGE('',*,*,#542,.T.);
#557 = ORIENTED_EDGE('',*,*,#144,.T.);
#558 = ORIENTED_EDGE('',*,*,#559,.F.);
#559 = EDGE_CURVE('',#368,#137,#560,.T.);
#560 = LINE('',#561,#562);
#561 = CARTESIAN_POINT('',(-0.49,1.25,-2.5));
#562 = VECTOR('',#563,1.);
#563 = DIRECTION('',(0.,0.,1.));
#564 = PLANE('',#565);
#565 = AXIS2_PLACEMENT_3D('',#566,#567,#568);
#566 = CARTESIAN_POINT('',(0.,0.76,-2.5));
#567 = DIRECTION('',(-0.707106781187,-0.707106781187,0.));
#568 = DIRECTION('',(-0.707106781187,0.707106781187,0.));
#569 = ADVANCED_FACE('',(#570),#576,.T.);
#570 = FACE_BOUND('',#571,.T.);
#571 = EDGE_LOOP('',(#572,#573,#574,#575));
#572 = ORIENTED_EDGE('',*,*,#136,.F.);
#573 = ORIENTED_EDGE('',*,*,#559,.F.);
#574 = ORIENTED_EDGE('',*,*,#367,.T.);
#575 = ORIENTED_EDGE('',*,*,#463,.T.);
#576 = PLANE('',#577);
#577 = AXIS2_PLACEMENT_3D('',#578,#579,#580);
#578 = CARTESIAN_POINT('',(2.54,1.25,-5.551115123126E-16));
#579 = DIRECTION('',(0.,1.,-4.440892098501E-16));
#580 = DIRECTION('',(-1.,0.,0.));
#581 = ADVANCED_FACE('',(#582),#593,.T.);
#582 = FACE_BOUND('',#583,.T.);
#583 = EDGE_LOOP('',(#584,#585,#586,#587));
#584 = ORIENTED_EDGE('',*,*,#312,.F.);
#585 = ORIENTED_EDGE('',*,*,#342,.F.);
#586 = ORIENTED_EDGE('',*,*,#447,.T.);
#587 = ORIENTED_EDGE('',*,*,#588,.T.);
#588 = EDGE_CURVE('',#440,#305,#589,.T.);
#589 = LINE('',#590,#591);
#590 = CARTESIAN_POINT('',(-0.49,-1.25,-2.5));
#591 = VECTOR('',#592,1.);
#592 = DIRECTION('',(0.,0.,1.));
#593 = PLANE('',#594);
#594 = AXIS2_PLACEMENT_3D('',#595,#596,#597);
#595 = CARTESIAN_POINT('',(-2.54,-1.25,5.551115123126E-16));
#596 = DIRECTION('',(0.,-1.,4.440892098501E-16));
#597 = DIRECTION('',(1.,0.,0.));
#598 = ADVANCED_FACE('',(#599),#610,.T.);
#599 = FACE_BOUND('',#600,.T.);
#600 = EDGE_LOOP('',(#601,#602,#608,#609));
#601 = ORIENTED_EDGE('',*,*,#439,.F.);
#602 = ORIENTED_EDGE('',*,*,#603,.T.);
#603 = EDGE_CURVE('',#432,#297,#604,.T.);
#604 = LINE('',#605,#606);
#605 = CARTESIAN_POINT('',(0.,-0.76,-2.5));
#606 = VECTOR('',#607,1.);
#607 = DIRECTION('',(0.,0.,1.));
#608 = ORIENTED_EDGE('',*,*,#304,.T.);
#609 = ORIENTED_EDGE('',*,*,#588,.F.);
#610 = PLANE('',#611);
#611 = AXIS2_PLACEMENT_3D('',#612,#613,#614);
#612 = CARTESIAN_POINT('',(0.,-0.76,-2.5));
#613 = DIRECTION('',(0.707106781187,-0.707106781187,0.));
#614 = DIRECTION('',(-0.707106781187,-0.707106781187,0.));
#615 = ADVANCED_FACE('',(#616),#627,.T.);
#616 = FACE_BOUND('',#617,.T.);
#617 = EDGE_LOOP('',(#618,#619,#625,#626));
#618 = ORIENTED_EDGE('',*,*,#431,.F.);
#619 = ORIENTED_EDGE('',*,*,#620,.T.);
#620 = EDGE_CURVE('',#424,#289,#621,.T.);
#621 = LINE('',#622,#623);
#622 = CARTESIAN_POINT('',(0.49,-1.25,-2.5));
#623 = VECTOR('',#624,1.);
#624 = DIRECTION('',(0.,0.,1.));
#625 = ORIENTED_EDGE('',*,*,#296,.T.);
#626 = ORIENTED_EDGE('',*,*,#603,.F.);
#627 = PLANE('',#628);
#628 = AXIS2_PLACEMENT_3D('',#629,#630,#631);
#629 = CARTESIAN_POINT('',(0.49,-1.25,-2.5));
#630 = DIRECTION('',(-0.707106781187,-0.707106781187,0.));
#631 = DIRECTION('',(-0.707106781187,0.707106781187,0.));
#632 = ADVANCED_FACE('',(#633),#644,.T.);
#633 = FACE_BOUND('',#634,.T.);
#634 = EDGE_LOOP('',(#635,#636,#637,#638));
#635 = ORIENTED_EDGE('',*,*,#288,.F.);
#636 = ORIENTED_EDGE('',*,*,#620,.F.);
#637 = ORIENTED_EDGE('',*,*,#423,.T.);
#638 = ORIENTED_EDGE('',*,*,#639,.T.);
#639 = EDGE_CURVE('',#416,#281,#640,.T.);
#640 = LINE('',#641,#642);
#641 = CARTESIAN_POINT('',(2.05,-1.25,-2.5));
#642 = VECTOR('',#643,1.);
#643 = DIRECTION('',(0.,0.,1.));
#644 = PLANE('',#645);
#645 = AXIS2_PLACEMENT_3D('',#646,#647,#648);
#646 = CARTESIAN_POINT('',(-2.54,-1.25,5.551115123126E-16));
#647 = DIRECTION('',(0.,-1.,4.440892098501E-16));
#648 = DIRECTION('',(1.,0.,0.));
#649 = ADVANCED_FACE('',(#650),#656,.T.);
#650 = FACE_BOUND('',#651,.T.);
#651 = EDGE_LOOP('',(#652,#653,#654,#655));
#652 = ORIENTED_EDGE('',*,*,#415,.F.);
#653 = ORIENTED_EDGE('',*,*,#480,.T.);
#654 = ORIENTED_EDGE('',*,*,#280,.T.);
#655 = ORIENTED_EDGE('',*,*,#639,.F.);
#656 = PLANE('',#657);
#657 = AXIS2_PLACEMENT_3D('',#658,#659,#660);
#658 = CARTESIAN_POINT('',(2.54,-0.76,-2.5));
#659 = DIRECTION('',(0.707106781187,-0.707106781187,0.));
#660 = DIRECTION('',(-0.707106781187,-0.707106781187,0.));
#661 = ( GEOMETRIC_REPRESENTATION_CONTEXT(3) 
GLOBAL_UNCERTAINTY_ASSIGNED_CONTEXT((#665)) GLOBAL_UNIT_ASSIGNED_CONTEXT
((#662,#663,#664)) REPRESENTATION_CONTEXT('Context #1',
  '3D Context with UNIT and UNCERTAINTY') );
#662 = ( LENGTH_UNIT() NAMED_UNIT(*) SI_UNIT(.MILLI.,.METRE.) );
#663 = ( NAMED_UNIT(*) PLANE_ANGLE_UNIT() SI_UNIT($,.RADIAN.) );
#664 = ( NAMED_UNIT(*) SI_UNIT($,.STERADIAN.) SOLID_ANGLE_UNIT() );
#665 = UNCERTAINTY_MEASURE_WITH_UNIT(LENGTH_MEASURE(2.E-06),#662,
  'distance_accuracy_value','confusion accuracy');
#666 = CONTEXT_DEPENDENT_SHAPE_REPRESENTATION(#667,#669);
#667 = ( REPRESENTATION_RELATIONSHIP('','',#48,#10) 
REPRESENTATION_RELATIONSHIP_WITH_TRANSFORMATION(#668) 
SHAPE_REPRESENTATION_RELATIONSHIP() );
#668 = ITEM_DEFINED_TRANSFORMATION('','',#11,#15);
#669 = PRODUCT_DEFINITION_SHAPE('Placement','Placement of an item',#670
  );
#670 = NEXT_ASSEMBLY_USAGE_OCCURRENCE('61219',
  'EXPORT__LinearPattern__S01','',#5,#43,$);
#671 = PRODUCT_RELATED_PRODUCT_CATEGORY('part',$,(#45));
#672 = SHAPE_DEFINITION_REPRESENTATION(#673,#679);
#673 = PRODUCT_DEFINITION_SHAPE('','',#674);
#674 = PRODUCT_DEFINITION('design','',#675,#678);
#675 = PRODUCT_DEFINITION_FORMATION('','',#676);
#676 = PRODUCT('EXPORT__LinearPattern001__S01',
  'EXPORT__LinearPattern001__S01','',(#677));
#677 = PRODUCT_CONTEXT('',#2,'mechanical');
#678 = PRODUCT_DEFINITION_CONTEXT('part definition',#2,'design');
#679 = ADVANCED_BREP_SHAPE_REPRESENTATION('',(#11,#680),#926);
#680 = MANIFOLD_SOLID_BREP('',#681);
#681 = CLOSED_SHELL('',(#682,#722,#753,#784,#808,#832,#849,#873,#897,
    #914));
#682 = ADVANCED_FACE('',(#683),#717,.F.);
#683 = FACE_BOUND('',#684,.F.);
#684 = EDGE_LOOP('',(#685,#695,#703,#711));
#685 = ORIENTED_EDGE('',*,*,#686,.T.);
#686 = EDGE_CURVE('',#687,#689,#691,.T.);
#687 = VERTEX_POINT('',#688);
#688 = CARTESIAN_POINT('',(-0.95,0.32,-0.75));
#689 = VERTEX_POINT('',#690);
#690 = CARTESIAN_POINT('',(-0.95,0.32,2.7));
#691 = LINE('',#692,#693);
#692 = CARTESIAN_POINT('',(-0.95,0.32,-0.75));
#693 = VECTOR('',#694,1.);
#694 = DIRECTION('',(0.,4.440892098501E-16,1.));
#695 = ORIENTED_EDGE('',*,*,#696,.T.);
#696 = EDGE_CURVE('',#689,#697,#699,.T.);
#697 = VERTEX_POINT('',#698);
#698 = CARTESIAN_POINT('',(-1.59,0.32,2.7));
#699 = LINE('',#700,#701);
#700 = CARTESIAN_POINT('',(-0.95,0.32,2.7));
#701 = VECTOR('',#702,1.);
#702 = DIRECTION('',(-1.,0.,0.));
#703 = ORIENTED_EDGE('',*,*,#704,.F.);
#704 = EDGE_CURVE('',#705,#697,#707,.T.);
#705 = VERTEX_POINT('',#706);
#706 = CARTESIAN_POINT('',(-1.59,0.32,-0.75));
#707 = LINE('',#708,#709);
#708 = CARTESIAN_POINT('',(-1.59,0.32,-0.75));
#709 = VECTOR('',#710,1.);
#710 = DIRECTION('',(0.,4.440892098501E-16,1.));
#711 = ORIENTED_EDGE('',*,*,#712,.F.);
#712 = EDGE_CURVE('',#687,#705,#713,.T.);
#713 = LINE('',#714,#715);
#714 = CARTESIAN_POINT('',(-0.95,0.32,-0.75));
#715 = VECTOR('',#716,1.);
#716 = DIRECTION('',(-1.,0.,0.));
#717 = PLANE('',#718);
#718 = AXIS2_PLACEMENT_3D('',#719,#720,#721);
#719 = CARTESIAN_POINT('',(-0.95,0.32,-0.75));
#720 = DIRECTION('',(0.,-1.,4.440892098501E-16));
#721 = DIRECTION('',(-1.,0.,0.));
#722 = ADVANCED_FACE('',(#723),#748,.F.);
#723 = FACE_BOUND('',#724,.F.);
#724 = EDGE_LOOP('',(#725,#735,#741,#742));
#725 = ORIENTED_EDGE('',*,*,#726,.T.);
#726 = EDGE_CURVE('',#727,#729,#731,.T.);
#727 = VERTEX_POINT('',#728);
#728 = CARTESIAN_POINT('',(-0.95,-0.32,-0.75));
#729 = VERTEX_POINT('',#730);
#730 = CARTESIAN_POINT('',(-0.95,-0.32,2.7));
#731 = LINE('',#732,#733);
#732 = CARTESIAN_POINT('',(-0.95,-0.32,-0.75));
#733 = VECTOR('',#734,1.);
#734 = DIRECTION('',(0.,4.440892098501E-16,1.));
#735 = ORIENTED_EDGE('',*,*,#736,.T.);
#736 = EDGE_CURVE('',#729,#689,#737,.T.);
#737 = LINE('',#738,#739);
#738 = CARTESIAN_POINT('',(-0.95,-0.32,2.7));
#739 = VECTOR('',#740,1.);
#740 = DIRECTION('',(0.,1.,-4.440892098501E-16));
#741 = ORIENTED_EDGE('',*,*,#686,.F.);
#742 = ORIENTED_EDGE('',*,*,#743,.F.);
#743 = EDGE_CURVE('',#727,#687,#744,.T.);
#744 = LINE('',#745,#746);
#745 = CARTESIAN_POINT('',(-0.95,-0.32,-0.75));
#746 = VECTOR('',#747,1.);
#747 = DIRECTION('',(0.,1.,-4.440892098501E-16));
#748 = PLANE('',#749);
#749 = AXIS2_PLACEMENT_3D('',#750,#751,#752);
#750 = CARTESIAN_POINT('',(-0.95,-0.32,-0.75));
#751 = DIRECTION('',(-1.,0.,0.));
#752 = DIRECTION('',(0.,1.,-4.440892098501E-16));
#753 = ADVANCED_FACE('',(#754),#779,.T.);
#754 = FACE_BOUND('',#755,.T.);
#755 = EDGE_LOOP('',(#756,#764,#765,#773));
#756 = ORIENTED_EDGE('',*,*,#757,.F.);
#757 = EDGE_CURVE('',#689,#758,#760,.T.);
#758 = VERTEX_POINT('',#759);
#759 = CARTESIAN_POINT('',(-1.05919107028,0.21080892972,3.));
#760 = LINE('',#761,#762);
#761 = CARTESIAN_POINT('',(-1.032390559613,0.237609440387,2.926366202113
    ));
#762 = VECTOR('',#763,1.);
#763 = DIRECTION('',(-0.323615577118,-0.323615577118,0.889126490716));
#764 = ORIENTED_EDGE('',*,*,#696,.T.);
#765 = ORIENTED_EDGE('',*,*,#766,.T.);
#766 = EDGE_CURVE('',#697,#767,#769,.T.);
#767 = VERTEX_POINT('',#768);
#768 = CARTESIAN_POINT('',(-1.48080892972,0.21080892972,3.));
#769 = LINE('',#770,#771);
#770 = CARTESIAN_POINT('',(-1.507609440387,0.237609440387,2.926366202113
    ));
#771 = VECTOR('',#772,1.);
#772 = DIRECTION('',(0.323615577118,-0.323615577118,0.889126490716));
#773 = ORIENTED_EDGE('',*,*,#774,.F.);
#774 = EDGE_CURVE('',#758,#767,#775,.T.);
#775 = LINE('',#776,#777);
#776 = CARTESIAN_POINT('',(-0.95,0.21080892972,3.));
#777 = VECTOR('',#778,1.);
#778 = DIRECTION('',(-1.,0.,0.));
#779 = PLANE('',#780);
#780 = AXIS2_PLACEMENT_3D('',#781,#782,#783);
#781 = CARTESIAN_POINT('',(-0.95,0.26540446486,2.85));
#782 = DIRECTION('',(0.,0.939692620786,0.342020143326));
#783 = DIRECTION('',(-1.,0.,0.));
#784 = ADVANCED_FACE('',(#785),#803,.T.);
#785 = FACE_BOUND('',#786,.F.);
#786 = EDGE_LOOP('',(#787,#788,#796,#802));
#787 = ORIENTED_EDGE('',*,*,#712,.T.);
#788 = ORIENTED_EDGE('',*,*,#789,.T.);
#789 = EDGE_CURVE('',#705,#790,#792,.T.);
#790 = VERTEX_POINT('',#791);
#791 = CARTESIAN_POINT('',(-1.59,-0.32,-0.75));
#792 = LINE('',#793,#794);
#793 = CARTESIAN_POINT('',(-1.59,0.32,-0.75));
#794 = VECTOR('',#795,1.);
#795 = DIRECTION('',(0.,-1.,4.440892098501E-16));
#796 = ORIENTED_EDGE('',*,*,#797,.T.);
#797 = EDGE_CURVE('',#790,#727,#798,.T.);
#798 = LINE('',#799,#800);
#799 = CARTESIAN_POINT('',(-1.59,-0.32,-0.75));
#800 = VECTOR('',#801,1.);
#801 = DIRECTION('',(1.,0.,0.));
#802 = ORIENTED_EDGE('',*,*,#743,.T.);
#803 = PLANE('',#804);
#804 = AXIS2_PLACEMENT_3D('',#805,#806,#807);
#805 = CARTESIAN_POINT('',(-1.27,-3.330669073875E-16,-0.75));
#806 = DIRECTION('',(0.,-2.22044604925E-16,-1.));
#807 = DIRECTION('',(0.,1.,-2.22044604925E-16));
#808 = ADVANCED_FACE('',(#809),#827,.F.);
#809 = FACE_BOUND('',#810,.F.);
#810 = EDGE_LOOP('',(#811,#812,#820,#826));
#811 = ORIENTED_EDGE('',*,*,#704,.T.);
#812 = ORIENTED_EDGE('',*,*,#813,.T.);
#813 = EDGE_CURVE('',#697,#814,#816,.T.);
#814 = VERTEX_POINT('',#815);
#815 = CARTESIAN_POINT('',(-1.59,-0.32,2.7));
#816 = LINE('',#817,#818);
#817 = CARTESIAN_POINT('',(-1.59,0.32,2.7));
#818 = VECTOR('',#819,1.);
#819 = DIRECTION('',(0.,-1.,4.440892098501E-16));
#820 = ORIENTED_EDGE('',*,*,#821,.F.);
#821 = EDGE_CURVE('',#790,#814,#822,.T.);
#822 = LINE('',#823,#824);
#823 = CARTESIAN_POINT('',(-1.59,-0.32,-0.75));
#824 = VECTOR('',#825,1.);
#825 = DIRECTION('',(0.,4.440892098501E-16,1.));
#826 = ORIENTED_EDGE('',*,*,#789,.F.);
#827 = PLANE('',#828);
#828 = AXIS2_PLACEMENT_3D('',#829,#830,#831);
#829 = CARTESIAN_POINT('',(-1.59,0.32,-0.75));
#830 = DIRECTION('',(1.,0.,0.));
#831 = DIRECTION('',(0.,-1.,4.440892098501E-16));
#832 = ADVANCED_FACE('',(#833),#844,.F.);
#833 = FACE_BOUND('',#834,.F.);
#834 = EDGE_LOOP('',(#835,#836,#842,#843));
#835 = ORIENTED_EDGE('',*,*,#821,.T.);
#836 = ORIENTED_EDGE('',*,*,#837,.T.);
#837 = EDGE_CURVE('',#814,#729,#838,.T.);
#838 = LINE('',#839,#840);
#839 = CARTESIAN_POINT('',(-1.59,-0.32,2.7));
#840 = VECTOR('',#841,1.);
#841 = DIRECTION('',(1.,0.,0.));
#842 = ORIENTED_EDGE('',*,*,#726,.F.);
#843 = ORIENTED_EDGE('',*,*,#797,.F.);
#844 = PLANE('',#845);
#845 = AXIS2_PLACEMENT_3D('',#846,#847,#848);
#846 = CARTESIAN_POINT('',(-1.59,-0.32,-0.75));
#847 = DIRECTION('',(0.,1.,-4.440892098501E-16));
#848 = DIRECTION('',(1.,0.,0.));
#849 = ADVANCED_FACE('',(#850),#868,.T.);
#850 = FACE_BOUND('',#851,.T.);
#851 = EDGE_LOOP('',(#852,#860,#861,#862));
#852 = ORIENTED_EDGE('',*,*,#853,.F.);
#853 = EDGE_CURVE('',#729,#854,#856,.T.);
#854 = VERTEX_POINT('',#855);
#855 = CARTESIAN_POINT('',(-1.05919107028,-0.21080892972,3.));
#856 = LINE('',#857,#858);
#857 = CARTESIAN_POINT('',(-1.032390559613,-0.237609440387,
    2.926366202113));
#858 = VECTOR('',#859,1.);
#859 = DIRECTION('',(-0.323615577118,0.323615577118,0.889126490716));
#860 = ORIENTED_EDGE('',*,*,#736,.T.);
#861 = ORIENTED_EDGE('',*,*,#757,.T.);
#862 = ORIENTED_EDGE('',*,*,#863,.F.);
#863 = EDGE_CURVE('',#854,#758,#864,.T.);
#864 = LINE('',#865,#866);
#865 = CARTESIAN_POINT('',(-1.05919107028,-0.32,3.));
#866 = VECTOR('',#867,1.);
#867 = DIRECTION('',(0.,1.,-4.440892098501E-16));
#868 = PLANE('',#869);
#869 = AXIS2_PLACEMENT_3D('',#870,#871,#872);
#870 = CARTESIAN_POINT('',(-1.00459553514,-0.32,2.85));
#871 = DIRECTION('',(0.939692620786,7.636672072685E-17,0.342020143326));
#872 = DIRECTION('',(7.096627690292E-17,1.,-4.182595974207E-16));
#873 = ADVANCED_FACE('',(#874),#892,.F.);
#874 = FACE_BOUND('',#875,.F.);
#875 = EDGE_LOOP('',(#876,#877,#878,#886));
#876 = ORIENTED_EDGE('',*,*,#774,.F.);
#877 = ORIENTED_EDGE('',*,*,#863,.F.);
#878 = ORIENTED_EDGE('',*,*,#879,.F.);
#879 = EDGE_CURVE('',#880,#854,#882,.T.);
#880 = VERTEX_POINT('',#881);
#881 = CARTESIAN_POINT('',(-1.48080892972,-0.21080892972,3.));
#882 = LINE('',#883,#884);
#883 = CARTESIAN_POINT('',(-1.59,-0.21080892972,3.));
#884 = VECTOR('',#885,1.);
#885 = DIRECTION('',(1.,0.,0.));
#886 = ORIENTED_EDGE('',*,*,#887,.F.);
#887 = EDGE_CURVE('',#767,#880,#888,.T.);
#888 = LINE('',#889,#890);
#889 = CARTESIAN_POINT('',(-1.48080892972,0.32,3.));
#890 = VECTOR('',#891,1.);
#891 = DIRECTION('',(0.,-1.,4.440892098501E-16));
#892 = PLANE('',#893);
#893 = AXIS2_PLACEMENT_3D('',#894,#895,#896);
#894 = CARTESIAN_POINT('',(-1.27,1.33226762955E-15,3.));
#895 = DIRECTION('',(0.,-2.22044604925E-16,-1.));
#896 = DIRECTION('',(0.,1.,-2.22044604925E-16));
#897 = ADVANCED_FACE('',(#898),#909,.T.);
#898 = FACE_BOUND('',#899,.T.);
#899 = EDGE_LOOP('',(#900,#901,#902,#908));
#900 = ORIENTED_EDGE('',*,*,#766,.F.);
#901 = ORIENTED_EDGE('',*,*,#813,.T.);
#902 = ORIENTED_EDGE('',*,*,#903,.T.);
#903 = EDGE_CURVE('',#814,#880,#904,.T.);
#904 = LINE('',#905,#906);
#905 = CARTESIAN_POINT('',(-1.507609440387,-0.237609440387,
    2.926366202113));
#906 = VECTOR('',#907,1.);
#907 = DIRECTION('',(0.323615577118,0.323615577118,0.889126490716));
#908 = ORIENTED_EDGE('',*,*,#887,.F.);
#909 = PLANE('',#910);
#910 = AXIS2_PLACEMENT_3D('',#911,#912,#913);
#911 = CARTESIAN_POINT('',(-1.53540446486,0.32,2.85));
#912 = DIRECTION('',(-0.939692620786,7.636672072685E-17,0.342020143326)
  );
#913 = DIRECTION('',(7.096627690292E-17,-1.,4.182595974207E-16));
#914 = ADVANCED_FACE('',(#915),#921,.T.);
#915 = FACE_BOUND('',#916,.T.);
#916 = EDGE_LOOP('',(#917,#918,#919,#920));
#917 = ORIENTED_EDGE('',*,*,#903,.F.);
#918 = ORIENTED_EDGE('',*,*,#837,.T.);
#919 = ORIENTED_EDGE('',*,*,#853,.T.);
#920 = ORIENTED_EDGE('',*,*,#879,.F.);
#921 = PLANE('',#922);
#922 = AXIS2_PLACEMENT_3D('',#923,#924,#925);
#923 = CARTESIAN_POINT('',(-1.59,-0.26540446486,2.85));
#924 = DIRECTION('',(1.735607289247E-18,-0.939692620786,0.342020143326)
  );
#925 = DIRECTION('',(1.,1.630937362287E-18,-5.936126538252E-19));
#926 = ( GEOMETRIC_REPRESENTATION_CONTEXT(3) 
GLOBAL_UNCERTAINTY_ASSIGNED_CONTEXT((#930)) GLOBAL_UNIT_ASSIGNED_CONTEXT
((#927,#928,#929)) REPRESENTATION_CONTEXT('Context #1',
  '3D Context with UNIT and UNCERTAINTY') );
#927 = ( LENGTH_UNIT() NAMED_UNIT(*) SI_UNIT(.MILLI.,.METRE.) );
#928 = ( NAMED_UNIT(*) PLANE_ANGLE_UNIT() SI_UNIT($,.RADIAN.) );
#929 = ( NAMED_UNIT(*) SI_UNIT($,.STERADIAN.) SOLID_ANGLE_UNIT() );
#930 = UNCERTAINTY_MEASURE_WITH_UNIT(LENGTH_MEASURE(1.E-07),#927,
  'distance_accuracy_value','confusion accuracy');
#931 = CONTEXT_DEPENDENT_SHAPE_REPRESENTATION(#932,#934);
#932 = ( REPRESENTATION_RELATIONSHIP('','',#679,#10) 
REPRESENTATION_RELATIONSHIP_WITH_TRANSFORMATION(#933) 
SHAPE_REPRESENTATION_RELATIONSHIP() );
#933 = ITEM_DEFINED_TRANSFORMATION('','',#11,#19);
#934 = PRODUCT_DEFINITION_SHAPE('Placement','Placement of an item',#935
  );
#935 = NEXT_ASSEMBLY_USAGE_OCCURRENCE('61220',
  'EXPORT__LinearPattern001__S01','',#5,#674,$);
#936 = PRODUCT_RELATED_PRODUCT_CATEGORY('part',$,(#676));
#937 = CONTEXT_DEPENDENT_SHAPE_REPRESENTATION(#938,#940);
#938 = ( REPRESENTATION_RELATIONSHIP('','',#679,#10) 
REPRESENTATION_RELATIONSHIP_WITH_TRANSFORMATION(#939) 
SHAPE_REPRESENTATION_RELATIONSHIP() );
#939 = ITEM_DEFINED_TRANSFORMATION('','',#11,#23);
#940 = PRODUCT_DEFINITION_SHAPE('Placement','Placement of an item',#941
  );
#941 = NEXT_ASSEMBLY_USAGE_OCCURRENCE('61221',
  'EXPORT__LinearPattern001__S02','',#5,#674,$);
#942 = SHAPE_DEFINITION_REPRESENTATION(#943,#949);
#943 = PRODUCT_DEFINITION_SHAPE('','',#944);
#944 = PRODUCT_DEFINITION('design','',#945,#948);
#945 = PRODUCT_DEFINITION_FORMATION('','',#946);
#946 = PRODUCT('EXPORT__LinearPattern002__S01',
  'EXPORT__LinearPattern002__S01','',(#947));
#947 = PRODUCT_CONTEXT('',#2,'mechanical');
#948 = PRODUCT_DEFINITION_CONTEXT('part definition',#2,'design');
#949 = ADVANCED_BREP_SHAPE_REPRESENTATION('',(#11,#950),#1196);
#950 = MANIFOLD_SOLID_BREP('',#951);
#951 = CLOSED_SHELL('',(#952,#992,#1023,#1047,#1071,#1088,#1119,#1143,
    #1167,#1184));
#952 = ADVANCED_FACE('',(#953),#987,.T.);
#953 = FACE_BOUND('',#954,.T.);
#954 = EDGE_LOOP('',(#955,#965,#973,#981));
#955 = ORIENTED_EDGE('',*,*,#956,.F.);
#956 = EDGE_CURVE('',#957,#959,#961,.T.);
#957 = VERTEX_POINT('',#958);
#958 = CARTESIAN_POINT('',(-1.48080892972,0.21080892972,-9.));
#959 = VERTEX_POINT('',#960);
#960 = CARTESIAN_POINT('',(-1.48080892972,-0.21080892972,-9.));
#961 = LINE('',#962,#963);
#962 = CARTESIAN_POINT('',(-1.48080892972,0.21080892972,-9.));
#963 = VECTOR('',#964,1.);
#964 = DIRECTION('',(0.,-1.,4.440892098501E-16));
#965 = ORIENTED_EDGE('',*,*,#966,.F.);
#966 = EDGE_CURVE('',#967,#957,#969,.T.);
#967 = VERTEX_POINT('',#968);
#968 = CARTESIAN_POINT('',(-1.05919107028,0.21080892972,-9.));
#969 = LINE('',#970,#971);
#970 = CARTESIAN_POINT('',(-0.95,0.21080892972,-9.));
#971 = VECTOR('',#972,1.);
#972 = DIRECTION('',(-1.,0.,0.));
#973 = ORIENTED_EDGE('',*,*,#974,.F.);
#974 = EDGE_CURVE('',#975,#967,#977,.T.);
#975 = VERTEX_POINT('',#976);
#976 = CARTESIAN_POINT('',(-1.05919107028,-0.21080892972,-9.));
#977 = LINE('',#978,#979);
#978 = CARTESIAN_POINT('',(-1.05919107028,-0.32,-9.));
#979 = VECTOR('',#980,1.);
#980 = DIRECTION('',(0.,1.,-4.440892098501E-16));
#981 = ORIENTED_EDGE('',*,*,#982,.F.);
#982 = EDGE_CURVE('',#959,#975,#983,.T.);
#983 = LINE('',#984,#985);
#984 = CARTESIAN_POINT('',(-1.48080892972,-0.21080892972,-9.));
#985 = VECTOR('',#986,1.);
#986 = DIRECTION('',(1.,0.,0.));
#987 = PLANE('',#988);
#988 = AXIS2_PLACEMENT_3D('',#989,#990,#991);
#989 = CARTESIAN_POINT('',(-1.27,-3.888382671402E-15,-9.));
#990 = DIRECTION('',(0.,-2.22044604925E-16,-1.));
#991 = DIRECTION('',(0.,1.,-2.22044604925E-16));
#992 = ADVANCED_FACE('',(#993),#1018,.T.);
#993 = FACE_BOUND('',#994,.F.);
#994 = EDGE_LOOP('',(#995,#996,#1004,#1012));
#995 = ORIENTED_EDGE('',*,*,#956,.F.);
#996 = ORIENTED_EDGE('',*,*,#997,.F.);
#997 = EDGE_CURVE('',#998,#957,#1000,.T.);
#998 = VERTEX_POINT('',#999);
#999 = CARTESIAN_POINT('',(-1.59,0.32,-8.7));
#1000 = LINE('',#1001,#1002);
#1001 = CARTESIAN_POINT('',(-1.501891811499,0.231891811499,
    -8.942075258376));
#1002 = VECTOR('',#1003,1.);
#1003 = DIRECTION('',(0.323615577118,-0.323615577118,-0.889126490716));
#1004 = ORIENTED_EDGE('',*,*,#1005,.T.);
#1005 = EDGE_CURVE('',#998,#1006,#1008,.T.);
#1006 = VERTEX_POINT('',#1007);
#1007 = CARTESIAN_POINT('',(-1.59,-0.32,-8.7));
#1008 = LINE('',#1009,#1010);
#1009 = CARTESIAN_POINT('',(-1.59,0.21080892972,-8.7));
#1010 = VECTOR('',#1011,1.);
#1011 = DIRECTION('',(0.,-1.,4.440892098501E-16));
#1012 = ORIENTED_EDGE('',*,*,#1013,.T.);
#1013 = EDGE_CURVE('',#1006,#959,#1014,.T.);
#1014 = LINE('',#1015,#1016);
#1015 = CARTESIAN_POINT('',(-1.507609440387,-0.237609440387,
    -8.926366202113));
#1016 = VECTOR('',#1017,1.);
#1017 = DIRECTION('',(0.323615577118,0.323615577118,-0.889126490716));
#1018 = PLANE('',#1019);
#1019 = AXIS2_PLACEMENT_3D('',#1020,#1021,#1022);
#1020 = CARTESIAN_POINT('',(-1.53540446486,0.21080892972,-8.85));
#1021 = DIRECTION('',(-0.939692620786,-6.074625512363E-17,
    -0.342020143326));
#1022 = DIRECTION('',(8.56447131635E-17,1.,-4.129170835363E-16));
#1023 = ADVANCED_FACE('',(#1024),#1042,.T.);
#1024 = FACE_BOUND('',#1025,.F.);
#1025 = EDGE_LOOP('',(#1026,#1027,#1035,#1041));
#1026 = ORIENTED_EDGE('',*,*,#1013,.F.);
#1027 = ORIENTED_EDGE('',*,*,#1028,.T.);
#1028 = EDGE_CURVE('',#1006,#1029,#1031,.T.);
#1029 = VERTEX_POINT('',#1030);
#1030 = CARTESIAN_POINT('',(-0.95,-0.32,-8.7));
#1031 = LINE('',#1032,#1033);
#1032 = CARTESIAN_POINT('',(-1.48080892972,-0.32,-8.7));
#1033 = VECTOR('',#1034,1.);
#1034 = DIRECTION('',(1.,0.,0.));
#1035 = ORIENTED_EDGE('',*,*,#1036,.T.);
#1036 = EDGE_CURVE('',#1029,#975,#1037,.T.);
#1037 = LINE('',#1038,#1039);
#1038 = CARTESIAN_POINT('',(-1.026672930725,-0.243327069275,
    -8.91065714585));
#1039 = VECTOR('',#1040,1.);
#1040 = DIRECTION('',(-0.323615577118,0.323615577118,-0.889126490716));
#1041 = ORIENTED_EDGE('',*,*,#982,.F.);
#1042 = PLANE('',#1043);
#1043 = AXIS2_PLACEMENT_3D('',#1044,#1045,#1046);
#1044 = CARTESIAN_POINT('',(-1.48080892972,-0.26540446486,-8.85));
#1045 = DIRECTION('',(0.,-0.939692620786,-0.342020143326));
#1046 = DIRECTION('',(-1.,-0.,-0.));
#1047 = ADVANCED_FACE('',(#1048),#1066,.T.);
#1048 = FACE_BOUND('',#1049,.F.);
#1049 = EDGE_LOOP('',(#1050,#1051,#1059,#1065));
#1050 = ORIENTED_EDGE('',*,*,#966,.F.);
#1051 = ORIENTED_EDGE('',*,*,#1052,.F.);
#1052 = EDGE_CURVE('',#1053,#967,#1055,.T.);
#1053 = VERTEX_POINT('',#1054);
#1054 = CARTESIAN_POINT('',(-0.95,0.32,-8.7));
#1055 = LINE('',#1056,#1057);
#1056 = CARTESIAN_POINT('',(-1.032390559613,0.237609440387,
    -8.926366202113));
#1057 = VECTOR('',#1058,1.);
#1058 = DIRECTION('',(-0.323615577118,-0.323615577118,-0.889126490716));
#1059 = ORIENTED_EDGE('',*,*,#1060,.T.);
#1060 = EDGE_CURVE('',#1053,#998,#1061,.T.);
#1061 = LINE('',#1062,#1063);
#1062 = CARTESIAN_POINT('',(-0.95,0.32,-8.7));
#1063 = VECTOR('',#1064,1.);
#1064 = DIRECTION('',(-1.,0.,0.));
#1065 = ORIENTED_EDGE('',*,*,#997,.T.);
#1066 = PLANE('',#1067);
#1067 = AXIS2_PLACEMENT_3D('',#1068,#1069,#1070);
#1068 = CARTESIAN_POINT('',(-0.95,0.26540446486,-8.85));
#1069 = DIRECTION('',(0.,0.939692620786,-0.342020143326));
#1070 = DIRECTION('',(1.,0.,0.));
#1071 = ADVANCED_FACE('',(#1072),#1083,.T.);
#1072 = FACE_BOUND('',#1073,.F.);
#1073 = EDGE_LOOP('',(#1074,#1075,#1076,#1082));
#1074 = ORIENTED_EDGE('',*,*,#974,.F.);
#1075 = ORIENTED_EDGE('',*,*,#1036,.F.);
#1076 = ORIENTED_EDGE('',*,*,#1077,.T.);
#1077 = EDGE_CURVE('',#1029,#1053,#1078,.T.);
#1078 = LINE('',#1079,#1080);
#1079 = CARTESIAN_POINT('',(-0.95,-0.32,-8.7));
#1080 = VECTOR('',#1081,1.);
#1081 = DIRECTION('',(0.,1.,-4.440892098501E-16));
#1082 = ORIENTED_EDGE('',*,*,#1052,.T.);
#1083 = PLANE('',#1084);
#1084 = AXIS2_PLACEMENT_3D('',#1085,#1086,#1087);
#1085 = CARTESIAN_POINT('',(-1.00459553514,-0.32,-8.85));
#1086 = DIRECTION('',(0.939692620786,-6.074625512363E-17,-0.342020143326
    ));
#1087 = DIRECTION('',(8.56447131635E-17,-1.,4.129170835363E-16));
#1088 = ADVANCED_FACE('',(#1089),#1114,.T.);
#1089 = FACE_BOUND('',#1090,.T.);
#1090 = EDGE_LOOP('',(#1091,#1099,#1107,#1113));
#1091 = ORIENTED_EDGE('',*,*,#1092,.F.);
#1092 = EDGE_CURVE('',#1093,#1006,#1095,.T.);
#1093 = VERTEX_POINT('',#1094);
#1094 = CARTESIAN_POINT('',(-1.59,-0.32,-2.5));
#1095 = LINE('',#1096,#1097);
#1096 = CARTESIAN_POINT('',(-1.59,-0.32,1.42108547152E-16));
#1097 = VECTOR('',#1098,1.);
#1098 = DIRECTION('',(-0.,-4.440892098501E-16,-1.));
#1099 = ORIENTED_EDGE('',*,*,#1100,.F.);
#1100 = EDGE_CURVE('',#1101,#1093,#1103,.T.);
#1101 = VERTEX_POINT('',#1102);
#1102 = CARTESIAN_POINT('',(-1.59,0.32,-2.5));
#1103 = LINE('',#1104,#1105);
#1104 = CARTESIAN_POINT('',(-1.59,0.32,-2.5));
#1105 = VECTOR('',#1106,1.);
#1106 = DIRECTION('',(0.,-1.,4.440892098501E-16));
#1107 = ORIENTED_EDGE('',*,*,#1108,.T.);
#1108 = EDGE_CURVE('',#1101,#998,#1109,.T.);
#1109 = LINE('',#1110,#1111);
#1110 = CARTESIAN_POINT('',(-1.59,0.32,-1.42108547152E-16));
#1111 = VECTOR('',#1112,1.);
#1112 = DIRECTION('',(-0.,-4.440892098501E-16,-1.));
#1113 = ORIENTED_EDGE('',*,*,#1005,.T.);
#1114 = PLANE('',#1115);
#1115 = AXIS2_PLACEMENT_3D('',#1116,#1117,#1118);
#1116 = CARTESIAN_POINT('',(-1.59,0.32,-1.42108547152E-16));
#1117 = DIRECTION('',(-1.,0.,0.));
#1118 = DIRECTION('',(0.,-1.,4.440892098501E-16));
#1119 = ADVANCED_FACE('',(#1120),#1138,.T.);
#1120 = FACE_BOUND('',#1121,.T.);
#1121 = EDGE_LOOP('',(#1122,#1123,#1131,#1137));
#1122 = ORIENTED_EDGE('',*,*,#1028,.T.);
#1123 = ORIENTED_EDGE('',*,*,#1124,.F.);
#1124 = EDGE_CURVE('',#1125,#1029,#1127,.T.);
#1125 = VERTEX_POINT('',#1126);
#1126 = CARTESIAN_POINT('',(-0.95,-0.32,-2.5));
#1127 = LINE('',#1128,#1129);
#1128 = CARTESIAN_POINT('',(-0.95,-0.32,1.42108547152E-16));
#1129 = VECTOR('',#1130,1.);
#1130 = DIRECTION('',(-0.,-4.440892098501E-16,-1.));
#1131 = ORIENTED_EDGE('',*,*,#1132,.F.);
#1132 = EDGE_CURVE('',#1093,#1125,#1133,.T.);
#1133 = LINE('',#1134,#1135);
#1134 = CARTESIAN_POINT('',(-1.59,-0.32,-2.5));
#1135 = VECTOR('',#1136,1.);
#1136 = DIRECTION('',(1.,0.,0.));
#1137 = ORIENTED_EDGE('',*,*,#1092,.T.);
#1138 = PLANE('',#1139);
#1139 = AXIS2_PLACEMENT_3D('',#1140,#1141,#1142);
#1140 = CARTESIAN_POINT('',(-1.59,-0.32,1.42108547152E-16));
#1141 = DIRECTION('',(0.,-1.,4.440892098501E-16));
#1142 = DIRECTION('',(1.,0.,0.));
#1143 = ADVANCED_FACE('',(#1144),#1162,.T.);
#1144 = FACE_BOUND('',#1145,.T.);
#1145 = EDGE_LOOP('',(#1146,#1147,#1155,#1161));
#1146 = ORIENTED_EDGE('',*,*,#1108,.F.);
#1147 = ORIENTED_EDGE('',*,*,#1148,.F.);
#1148 = EDGE_CURVE('',#1149,#1101,#1151,.T.);
#1149 = VERTEX_POINT('',#1150);
#1150 = CARTESIAN_POINT('',(-0.95,0.32,-2.5));
#1151 = LINE('',#1152,#1153);
#1152 = CARTESIAN_POINT('',(-0.95,0.32,-2.5));
#1153 = VECTOR('',#1154,1.);
#1154 = DIRECTION('',(-1.,0.,0.));
#1155 = ORIENTED_EDGE('',*,*,#1156,.T.);
#1156 = EDGE_CURVE('',#1149,#1053,#1157,.T.);
#1157 = LINE('',#1158,#1159);
#1158 = CARTESIAN_POINT('',(-0.95,0.32,-1.42108547152E-16));
#1159 = VECTOR('',#1160,1.);
#1160 = DIRECTION('',(-0.,-4.440892098501E-16,-1.));
#1161 = ORIENTED_EDGE('',*,*,#1060,.T.);
#1162 = PLANE('',#1163);
#1163 = AXIS2_PLACEMENT_3D('',#1164,#1165,#1166);
#1164 = CARTESIAN_POINT('',(-0.95,0.32,-1.42108547152E-16));
#1165 = DIRECTION('',(0.,1.,-4.440892098501E-16));
#1166 = DIRECTION('',(-1.,0.,0.));
#1167 = ADVANCED_FACE('',(#1168),#1179,.T.);
#1168 = FACE_BOUND('',#1169,.T.);
#1169 = EDGE_LOOP('',(#1170,#1171,#1172,#1173));
#1170 = ORIENTED_EDGE('',*,*,#1124,.T.);
#1171 = ORIENTED_EDGE('',*,*,#1077,.T.);
#1172 = ORIENTED_EDGE('',*,*,#1156,.F.);
#1173 = ORIENTED_EDGE('',*,*,#1174,.F.);
#1174 = EDGE_CURVE('',#1125,#1149,#1175,.T.);
#1175 = LINE('',#1176,#1177);
#1176 = CARTESIAN_POINT('',(-0.95,-0.32,-2.5));
#1177 = VECTOR('',#1178,1.);
#1178 = DIRECTION('',(0.,1.,-4.440892098501E-16));
#1179 = PLANE('',#1180);
#1180 = AXIS2_PLACEMENT_3D('',#1181,#1182,#1183);
#1181 = CARTESIAN_POINT('',(-0.95,-0.32,1.42108547152E-16));
#1182 = DIRECTION('',(1.,0.,0.));
#1183 = DIRECTION('',(0.,1.,-4.440892098501E-16));
#1184 = ADVANCED_FACE('',(#1185),#1191,.F.);
#1185 = FACE_BOUND('',#1186,.T.);
#1186 = EDGE_LOOP('',(#1187,#1188,#1189,#1190));
#1187 = ORIENTED_EDGE('',*,*,#1148,.T.);
#1188 = ORIENTED_EDGE('',*,*,#1100,.T.);
#1189 = ORIENTED_EDGE('',*,*,#1132,.T.);
#1190 = ORIENTED_EDGE('',*,*,#1174,.T.);
#1191 = PLANE('',#1192);
#1192 = AXIS2_PLACEMENT_3D('',#1193,#1194,#1195);
#1193 = CARTESIAN_POINT('',(-1.27,-1.001802807377E-15,-2.5));
#1194 = DIRECTION('',(0.,-2.22044604925E-16,-1.));
#1195 = DIRECTION('',(0.,1.,-2.22044604925E-16));
#1196 = ( GEOMETRIC_REPRESENTATION_CONTEXT(3) 
GLOBAL_UNCERTAINTY_ASSIGNED_CONTEXT((#1200)) 
GLOBAL_UNIT_ASSIGNED_CONTEXT((#1197,#1198,#1199)) REPRESENTATION_CONTEXT
('Context #1','3D Context with UNIT and UNCERTAINTY') );
#1197 = ( LENGTH_UNIT() NAMED_UNIT(*) SI_UNIT(.MILLI.,.METRE.) );
#1198 = ( NAMED_UNIT(*) PLANE_ANGLE_UNIT() SI_UNIT($,.RADIAN.) );
#1199 = ( NAMED_UNIT(*) SI_UNIT($,.STERADIAN.) SOLID_ANGLE_UNIT() );
#1200 = UNCERTAINTY_MEASURE_WITH_UNIT(LENGTH_MEASURE(1.E-07),#1197,
  'distance_accuracy_value','confusion accuracy');
#1201 = CONTEXT_DEPENDENT_SHAPE_REPRESENTATION(#1202,#1204);
#1202 = ( REPRESENTATION_RELATIONSHIP('','',#949,#10) 
REPRESENTATION_RELATIONSHIP_WITH_TRANSFORMATION(#1203) 
SHAPE_REPRESENTATION_RELATIONSHIP() );
#1203 = ITEM_DEFINED_TRANSFORMATION('','',#11,#27);
#1204 = PRODUCT_DEFINITION_SHAPE('Placement','Placement of an item',
  #1205);
#1205 = NEXT_ASSEMBLY_USAGE_OCCURRENCE('61222',
  'EXPORT__LinearPattern002__S01','',#5,#944,$);
#1206 = PRODUCT_RELATED_PRODUCT_CATEGORY('part',$,(#946));
#1207 = CONTEXT_DEPENDENT_SHAPE_REPRESENTATION(#1208,#1210);
#1208 = ( REPRESENTATION_RELATIONSHIP('','',#949,#10) 
REPRESENTATION_RELATIONSHIP_WITH_TRANSFORMATION(#1209) 
SHAPE_REPRESENTATION_RELATIONSHIP() );
#1209 = ITEM_DEFINED_TRANSFORMATION('','',#11,#31);
#1210 = PRODUCT_DEFINITION_SHAPE('Placement','Placement of an item',
  #1211);
#1211 = NEXT_ASSEMBLY_USAGE_OCCURRENCE('61223',
  'EXPORT__LinearPattern002__S02','',#5,#944,$);
#1212 = SHAPE_DEFINITION_REPRESENTATION(#940,#1213);
#1213 = SHAPE_REPRESENTATION('',(#23),#926);
#1214 = SHAPE_DEFINITION_REPRESENTATION(#1210,#1215);
#1215 = SHAPE_REPRESENTATION('',(#31),#1196);
#1216 = SHAPE_DEFINITION_REPRESENTATION(#940,#1217);
#1217 = SHAPE_REPRESENTATION('',(#23),#926);
#1218 = SHAPE_DEFINITION_REPRESENTATION(#1210,#1219);
#1219 = SHAPE_REPRESENTATION('',(#31),#1196);
#1220 = MECHANICAL_DESIGN_GEOMETRIC_PRESENTATION_REPRESENTATION('',(
    #1221,#1232,#1241),#926);
#1221 = STYLED_ITEM('color',(#1222),#680);
#1222 = PRESENTATION_STYLE_ASSIGNMENT((#1223,#1229));
#1223 = SURFACE_STYLE_USAGE(.BOTH.,#1224);
#1224 = SURFACE_SIDE_STYLE('',(#1225));
#1225 = SURFACE_STYLE_FILL_AREA(#1226);
#1226 = FILL_AREA_STYLE('',(#1227));
#1227 = FILL_AREA_STYLE_COLOUR('',#1228);
#1228 = COLOUR_RGB('',1.,0.811764731185,0.501960817233);
#1229 = CURVE_STYLE('',#1230,POSITIVE_LENGTH_MEASURE(0.1),#1231);
#1230 = DRAUGHTING_PRE_DEFINED_CURVE_FONT('continuous');
#1231 = COLOUR_RGB('',9.803921802644E-02,9.803921802644E-02,
  9.803921802644E-02);
#1232 = OVER_RIDING_STYLED_ITEM('overriding color',(#1233),#680,#1221);
#1233 = PRESENTATION_STYLE_BY_CONTEXT((#1234,#1239),#1213);
#1234 = SURFACE_STYLE_USAGE(.BOTH.,#1235);
#1235 = SURFACE_SIDE_STYLE('',(#1236));
#1236 = SURFACE_STYLE_FILL_AREA(#1237);
#1237 = FILL_AREA_STYLE('',(#1238));
#1238 = FILL_AREA_STYLE_COLOUR('',#1228);
#1239 = CURVE_STYLE('',#1240,POSITIVE_LENGTH_MEASURE(0.1),#1231);
#1240 = DRAUGHTING_PRE_DEFINED_CURVE_FONT('continuous');
#1241 = OVER_RIDING_STYLED_ITEM('overriding color',(#1242),#680,#1221);
#1242 = PRESENTATION_STYLE_BY_CONTEXT((#1243,#1249),#1217);
#1243 = SURFACE_STYLE_USAGE(.BOTH.,#1244);
#1244 = SURFACE_SIDE_STYLE('',(#1245));
#1245 = SURFACE_STYLE_FILL_AREA(#1246);
#1246 = FILL_AREA_STYLE('',(#1247));
#1247 = FILL_AREA_STYLE_COLOUR('',#1248);
#1248 = COLOUR_RGB('',1.,0.811764731185,0.501960817233);
#1249 = CURVE_STYLE('',#1250,POSITIVE_LENGTH_MEASURE(0.1),#1251);
#1250 = DRAUGHTING_PRE_DEFINED_CURVE_FONT('continuous');
#1251 = COLOUR_RGB('',9.803921802644E-02,9.803921802644E-02,
  9.803921802644E-02);
#1252 = MECHANICAL_DESIGN_GEOMETRIC_PRESENTATION_REPRESENTATION('',(
    #1253,#1262,#1271),#1196);
#1253 = STYLED_ITEM('color',(#1254),#950);
#1254 = PRESENTATION_STYLE_ASSIGNMENT((#1255,#1260));
#1255 = SURFACE_STYLE_USAGE(.BOTH.,#1256);
#1256 = SURFACE_SIDE_STYLE('',(#1257));
#1257 = SURFACE_STYLE_FILL_AREA(#1258);
#1258 = FILL_AREA_STYLE('',(#1259));
#1259 = FILL_AREA_STYLE_COLOUR('',#1228);
#1260 = CURVE_STYLE('',#1261,POSITIVE_LENGTH_MEASURE(0.1),#1231);
#1261 = DRAUGHTING_PRE_DEFINED_CURVE_FONT('continuous');
#1262 = OVER_RIDING_STYLED_ITEM('overriding color',(#1263),#950,#1253);
#1263 = PRESENTATION_STYLE_BY_CONTEXT((#1264,#1269),#1215);
#1264 = SURFACE_STYLE_USAGE(.BOTH.,#1265);
#1265 = SURFACE_SIDE_STYLE('',(#1266));
#1266 = SURFACE_STYLE_FILL_AREA(#1267);
#1267 = FILL_AREA_STYLE('',(#1268));
#1268 = FILL_AREA_STYLE_COLOUR('',#1228);
#1269 = CURVE_STYLE('',#1270,POSITIVE_LENGTH_MEASURE(0.1),#1231);
#1270 = DRAUGHTING_PRE_DEFINED_CURVE_FONT('continuous');
#1271 = OVER_RIDING_STYLED_ITEM('overriding color',(#1272),#950,#1253);
#1272 = PRESENTATION_STYLE_BY_CONTEXT((#1273,#1278),#1219);
#1273 = SURFACE_STYLE_USAGE(.BOTH.,#1274);
#1274 = SURFACE_SIDE_STYLE('',(#1275));
#1275 = SURFACE_STYLE_FILL_AREA(#1276);
#1276 = FILL_AREA_STYLE('',(#1277));
#1277 = FILL_AREA_STYLE_COLOUR('',#1248);
#1278 = CURVE_STYLE('',#1279,POSITIVE_LENGTH_MEASURE(0.1),#1251);
#1279 = DRAUGHTING_PRE_DEFINED_CURVE_FONT('continuous');
#1280 = MECHANICAL_DESIGN_GEOMETRIC_PRESENTATION_REPRESENTATION('',(
    #1281),#661);
#1281 = STYLED_ITEM('color',(#1282),#49);
#1282 = PRESENTATION_STYLE_ASSIGNMENT((#1283,#1289));
#1283 = SURFACE_STYLE_USAGE(.BOTH.,#1284);
#1284 = SURFACE_SIDE_STYLE('',(#1285));
#1285 = SURFACE_STYLE_FILL_AREA(#1286);
#1286 = FILL_AREA_STYLE('',(#1287));
#1287 = FILL_AREA_STYLE_COLOUR('',#1288);
#1288 = COLOUR_RGB('',0.447058818107,0.474509808674,0.501960817233);
#1289 = CURVE_STYLE('',#1290,POSITIVE_LENGTH_MEASURE(0.1),#1231);
#1290 = DRAUGHTING_PRE_DEFINED_CURVE_FONT('continuous');
ENDSEC;
END-ISO-10303-21;
